<svg width="192" height="304" viewBox="0 0 192 304" fill="none" xmlns="http://www.w3.org/2000/svg">
<path d="M191.585 39.8184V247.896C191.585 251.807 188.407 254.945 184.52 255.37C157.292 258.346 130.319 277.62 113.432 292.18C111.262 294.032 108.436 296.671 105.692 299.304C100.288 304.489 91.708 304.489 86.3043 299.304C83.5607 296.671 80.734 294.032 78.5645 292.18C61.6839 277.62 34.7117 258.346 7.48306 255.37C3.59589 254.945 0.417969 251.807 0.417969 247.896V39.8111C0.419618 39.1909 0.550045 38.5782 0.800558 38.0139C1.05107 37.4495 1.41591 36.9464 1.87077 36.5381H1.9062C2.68123 35.8425 3.67588 35.459 4.70551 35.459C5.73513 35.459 6.72978 35.8425 7.50481 36.5381C10.6374 39.273 14.5099 40.9596 18.6029 41.3719C22.6959 41.7842 26.8139 40.9025 30.4049 38.8449C33.9959 36.7873 36.8881 33.6523 38.6939 29.86C40.4997 26.0677 41.1328 21.7995 40.5082 17.6276C40.2472 16.0311 40.5267 14.3911 41.3004 12.9804C42.074 11.5697 43.2951 10.4735 44.7603 9.87427C77.7434 -3.09155 114.232 -3.09155 147.215 9.87427C148.68 10.4735 149.901 11.5697 150.675 12.9804C151.448 14.3911 151.728 16.0311 151.467 17.6276C150.824 21.8099 151.447 26.0939 153.252 29.9011C155.057 33.7083 157.957 36.8554 161.56 38.9173C165.163 40.9793 169.296 41.8568 173.401 41.4313C177.506 41.0058 181.384 39.2979 184.513 36.5381C185.287 35.8464 186.279 35.4654 187.305 35.4654C188.331 35.4654 189.323 35.8464 190.097 36.5381L190.133 36.5745C190.584 36.9795 190.947 37.4779 191.197 38.037C191.447 38.5961 191.58 39.2031 191.585 39.8184Z" fill="url(#paint0_linear_156_3418)"/>
<defs>
<linearGradient id="paint0_linear_156_3418" x1="96.0017" y1="0.149902" x2="96.0017" y2="308.85" gradientUnits="userSpaceOnUse">
<stop stop-color="#00D09F"/>
<stop offset="1" stop-color="#00785C"/>
</linearGradient>
</defs>
</svg>
