<svg width="627" height="46" viewBox="0 0 627 46" fill="none" xmlns="http://www.w3.org/2000/svg">
<path d="M32.125 23.1562L45.4062 23.5C44.5312 30.375 42.1458 35.6875 38.25 39.4375C34.375 43.1875 29.3125 45.0625 23.0625 45.0625C16.7083 45.0625 11.3854 42.9375 7.09375 38.6875C2.82292 34.4167 0.6875 29.125 0.6875 22.8125C0.6875 16.4583 2.86458 11.1146 7.21875 6.78125C11.5938 2.44792 16.9792 0.28125 23.375 0.28125C29.6667 0.28125 34.9167 2.40625 39.125 6.65625C42.0417 9.59375 44.1042 13.6875 45.3125 18.9375L31.7188 19.8438C30.1979 15.1771 27.3125 12.8438 23.0625 12.8438C20.3542 12.8438 18.1146 13.7812 16.3438 15.6562C14.5938 17.5312 13.7188 19.9167 13.7188 22.8125C13.7188 25.6042 14.5833 27.9167 16.3125 29.75C18.0417 31.5625 20.2292 32.4688 22.875 32.4688C25.5625 32.4688 27.6979 31.6667 29.2812 30.0625C30.8854 28.4583 31.8333 26.1562 32.125 23.1562Z" fill="#007499"/>
<path d="M65.065 16.5938V27.8438H61.5337V44H48.8462V1.34375H61.5337V16.5938H65.065ZM79.9088 1.34375V44H67.2213V1.34375H79.9088Z" fill="#007499"/>
<path d="M101.38 22.5938V33.8438H97.7237V44H85.0362V16.875C85.0362 11.625 86.4633 7.55208 89.3175 4.65625C92.1925 1.73958 96.2237 0.28125 101.411 0.28125C106.411 0.28125 110.109 1.60417 112.505 4.25C114.901 6.875 116.099 10.9375 116.099 16.4375V44H103.411V17.2812C103.411 15.6146 103.213 14.4583 102.817 13.8125C102.422 13.1667 101.713 12.8438 100.692 12.8438C98.7133 12.8438 97.7237 14.3229 97.7237 17.2812V22.5938H101.38Z" fill="#007499"/>
<path d="M120.351 44V13.25C120.351 9.4375 121.507 6.32292 123.82 3.90625C126.132 1.48958 129.133 0.28125 132.82 0.28125C137.195 0.28125 140.56 2.29167 142.914 6.3125C144.351 4.14583 145.893 2.60417 147.539 1.6875C149.185 0.75 151.216 0.28125 153.633 0.28125C157.466 0.28125 160.403 1.48958 162.445 3.90625C164.487 6.32292 165.508 9.80208 165.508 14.3438V44H152.82V16.25C152.82 14.875 152.705 13.9688 152.476 13.5312C152.268 13.0729 151.83 12.8438 151.164 12.8438C149.914 12.8438 149.289 13.9062 149.289 16.0312V44H136.601V16.25C136.601 14.8958 136.487 13.9896 136.258 13.5312C136.028 13.0729 135.58 12.8438 134.914 12.8438C133.664 12.8438 133.039 13.9792 133.039 16.25V44H120.351Z" fill="#007499"/>
<path d="M184.541 29.25V18.0625C187.104 18.0625 188.385 17.0833 188.385 15.125C188.385 13.3333 187.406 12.4375 185.447 12.4375C183.468 12.4375 182.479 13.6667 182.479 16.125V44H169.791V17.4375C169.791 14.6875 170.062 12.4375 170.604 10.6875C171.166 8.91667 172.114 7.27083 173.447 5.75C174.947 4.0625 176.822 2.72917 179.072 1.75C181.322 0.770833 183.645 0.28125 186.041 0.28125C190.375 0.28125 194.01 1.73958 196.947 4.65625C199.906 7.57292 201.385 11.1875 201.385 15.5C201.385 19.6875 200.062 23.0833 197.416 25.6875C195 28.0833 191.354 29.2812 186.479 29.2812L184.541 29.25Z" fill="#007499"/>
<path d="M216.794 1.34375V44H204.106V1.34375H216.794Z" fill="#007499"/>
<path d="M243.015 0.28125C249.057 0.28125 254.234 2.47917 258.546 6.875C262.88 11.2708 265.046 16.5312 265.046 22.6562C265.046 28.8854 262.869 34.1771 258.515 38.5312C254.161 42.8854 248.869 45.0625 242.64 45.0625C236.452 45.0625 231.171 42.875 226.796 38.5C222.421 34.125 220.234 28.8438 220.234 22.6562C220.234 16.4062 222.432 11.1146 226.827 6.78125C231.244 2.44792 236.64 0.28125 243.015 0.28125ZM242.64 12.8438C240.036 12.8438 237.817 13.8021 235.984 15.7188C234.15 17.6354 233.234 19.9479 233.234 22.6562C233.234 25.3646 234.15 27.6771 235.984 29.5938C237.838 31.5104 240.057 32.4688 242.64 32.4688C245.265 32.4688 247.484 31.5208 249.296 29.625C251.13 27.7083 252.046 25.3854 252.046 22.6562C252.046 19.9271 251.13 17.6146 249.296 15.7188C247.484 13.8021 245.265 12.8438 242.64 12.8438Z" fill="#007499"/>
<path d="M267.611 44V16.3125C267.611 11.4583 269.059 7.57292 271.955 4.65625C274.872 1.73958 278.747 0.28125 283.58 0.28125C288.392 0.28125 292.07 1.69792 294.611 4.53125C297.174 7.36458 298.455 11.4375 298.455 16.75V44H285.767V16.75C285.767 14.1458 284.84 12.8438 282.986 12.8438C281.195 12.8438 280.299 14.1458 280.299 16.75V44H267.611Z" fill="#007499"/>
<path d="M323.312 21.4375V32.875H319.094V44H306.406V17.5312C306.406 12.5521 307.938 8.4375 311 5.1875C314.083 1.91667 317.958 0.28125 322.625 0.28125C327.771 0.28125 332.073 2.5 335.531 6.9375L325.125 14.5312C324.542 12.9062 323.51 12.0938 322.031 12.0938C320.073 12.0938 319.094 13.4479 319.094 16.1562V21.4375H323.312Z" fill="#00A77F"/>
<path d="M355.753 0.28125C361.794 0.28125 366.971 2.47917 371.284 6.875C375.617 11.2708 377.784 16.5312 377.784 22.6562C377.784 28.8854 375.607 34.1771 371.253 38.5312C366.898 42.8854 361.607 45.0625 355.378 45.0625C349.19 45.0625 343.909 42.875 339.534 38.5C335.159 34.125 332.971 28.8438 332.971 22.6562C332.971 16.4062 335.169 11.1146 339.565 6.78125C343.982 2.44792 349.378 0.28125 355.753 0.28125ZM355.378 12.8438C352.773 12.8438 350.555 13.8021 348.721 15.7188C346.888 17.6354 345.971 19.9479 345.971 22.6562C345.971 25.3646 346.888 27.6771 348.721 29.5938C350.575 31.5104 352.794 32.4688 355.378 32.4688C358.003 32.4688 360.221 31.5208 362.034 29.625C363.867 27.7083 364.784 25.3854 364.784 22.6562C364.784 19.9271 363.867 17.6146 362.034 15.7188C360.221 13.8021 358.003 12.8438 355.378 12.8438Z" fill="#00A77F"/>
<path d="M401.443 0.28125C407.484 0.28125 412.661 2.47917 416.974 6.875C421.307 11.2708 423.474 16.5312 423.474 22.6562C423.474 28.8854 421.297 34.1771 416.943 38.5312C412.588 42.8854 407.297 45.0625 401.068 45.0625C394.88 45.0625 389.599 42.875 385.224 38.5C380.849 34.125 378.661 28.8438 378.661 22.6562C378.661 16.4062 380.859 11.1146 385.255 6.78125C389.672 2.44792 395.068 0.28125 401.443 0.28125ZM401.068 12.8438C398.463 12.8438 396.245 13.8021 394.411 15.7188C392.578 17.6354 391.661 19.9479 391.661 22.6562C391.661 25.3646 392.578 27.6771 394.411 29.5938C396.265 31.5104 398.484 32.4688 401.068 32.4688C403.693 32.4688 405.911 31.5208 407.724 29.625C409.557 27.7083 410.474 25.3854 410.474 22.6562C410.474 19.9271 409.557 17.6146 407.724 15.7188C405.911 13.8021 403.693 12.8438 401.068 12.8438Z" fill="#00A77F"/>
<path d="M445.476 13.5938V44H432.789V13.5938H423.07V1.34375H455.164V13.5938H445.476Z" fill="#00A77F"/>
<path d="M457.291 1.34375H472.791C481.979 1.34375 486.573 4.95833 486.573 12.1875C486.573 15.7708 485 18.75 481.854 21.125C486.416 23.1042 488.698 26.6354 488.698 31.7188C488.698 35.6146 487.354 38.7188 484.666 41.0312C483.354 42.1354 481.948 42.9062 480.448 43.3438C478.948 43.7812 476.927 44 474.385 44H471.979V33.0312H474.135C475.406 33.0312 476.302 32.875 476.823 32.5625C477.343 32.2292 477.604 31.6562 477.604 30.8438C477.604 29.4688 476.541 28.7812 474.416 28.7812H471.979V17.4062C474.312 17.4062 475.479 16.6042 475.479 15C475.479 13.5208 474.427 12.7812 472.323 12.7812H469.979V44H457.291V1.34375Z" fill="#00A77F"/>
<path d="M506.763 22.5938V33.8438H503.106V44H490.419V16.875C490.419 11.625 491.846 7.55208 494.7 4.65625C497.575 1.73958 501.606 0.28125 506.794 0.28125C511.794 0.28125 515.492 1.60417 517.888 4.25C520.283 6.875 521.481 10.9375 521.481 16.4375V44H508.794V17.2812C508.794 15.6146 508.596 14.4583 508.2 13.8125C507.804 13.1667 507.096 12.8438 506.075 12.8438C504.096 12.8438 503.106 14.3229 503.106 17.2812V22.5938H506.763Z" fill="#00A77F"/>
<path d="M525.734 1.34375H538.421V26.6875C538.421 28.6667 538.734 29.9896 539.359 30.6562C540.005 31.3021 541.265 31.625 543.14 31.625H543.796V44H540.421C535.796 44 532.192 42.6562 529.609 39.9688C527.025 37.2604 525.734 33.5104 525.734 28.7188V1.34375Z" fill="#00A77F"/>
<path d="M544.674 1.34375H557.361V26.6875C557.361 28.6667 557.674 29.9896 558.299 30.6562C558.945 31.3021 560.205 31.625 562.08 31.625H562.736V44H559.361C554.736 44 551.132 42.6562 548.549 39.9688C545.965 37.2604 544.674 33.5104 544.674 28.7188V1.34375Z" fill="#00A77F"/>
<path d="M587.239 17.9375V27.4375H578.958C577.833 27.4375 577.03 27.6042 576.551 27.9375C576.093 28.2708 575.864 28.8333 575.864 29.625C575.864 30.5208 576.103 31.1146 576.583 31.4062C577.062 31.6771 578.041 31.8125 579.52 31.8125H588.051V44H578.083C573.395 44 569.812 42.8854 567.333 40.6562C564.853 38.4062 563.614 35.1667 563.614 30.9375V14.2188C563.614 10.1354 564.78 6.96875 567.114 4.71875C569.468 2.46875 572.77 1.34375 577.02 1.34375H588.051V13.5938H579.958C577.77 13.5938 576.676 14.3021 576.676 15.7188C576.676 16.5521 576.937 17.1354 577.458 17.4688C577.978 17.7812 578.905 17.9375 580.239 17.9375H587.239Z" fill="#00A77F"/>
<path d="M605.491 12.8125V44H592.804V1.34375H609.085C614.043 1.34375 617.887 2.57292 620.616 5.03125C623.658 7.78125 625.179 11.2708 625.179 15.5C625.179 19.8125 623.293 23.4479 619.522 26.4062L626.835 44H613.522L607.366 30.25V19.2812H608.366C611.033 19.2812 612.366 18.1354 612.366 15.8438C612.366 13.8229 610.825 12.8125 607.741 12.8125H605.491Z" fill="#00A77F"/>
</svg>
